<svg width="1440" height="900" viewBox="0 0 1440 900" fill="none" xmlns="http://www.w3.org/2000/svg">
<rect width="1440" height="900" fill="transparent"/>
<g clip-path="url(#clip0_16_91176)">
<path d="M416.205 593.205C151.564 126.841 146.985 -5.62216 725.205 284.205" stroke="url(#paint0_linear_16_91176)" stroke-width="6" stroke-linecap="round"/>
<path d="M385.92 586.92C155.697 154.974 157.57 28.9631 694.921 277.92" stroke="url(#paint1_linear_16_91176)" stroke-width="6" stroke-linecap="round"/>
<path d="M355.636 580.636C159.83 183.107 168.155 63.5485 664.636 271.636" stroke="url(#paint2_linear_16_91176)" stroke-width="6" stroke-linecap="round"/>
<path d="M325.352 574.352C163.963 211.24 178.741 98.1338 634.352 265.352" stroke="url(#paint3_linear_16_91176)" stroke-width="6" stroke-linecap="round"/>
<path d="M295.068 568.068C168.096 239.373 189.326 132.719 604.068 259.068" stroke="url(#paint4_linear_16_91176)" stroke-width="6" stroke-linecap="round"/>
<path d="M264.784 561.783C172.229 267.506 199.911 167.304 573.784 252.783" stroke="url(#paint5_linear_16_91176)" stroke-width="6" stroke-linecap="round"/>
<path d="M234.499 555.499C176.362 295.639 210.497 201.89 543.499 246.499" stroke="url(#paint6_linear_16_91176)" stroke-width="6" stroke-linecap="round"/>
<path d="M204.215 549.215C180.495 323.772 221.082 236.475 513.215 240.215" stroke="url(#paint7_linear_16_91176)" stroke-width="6" stroke-linecap="round"/>
<path d="M173.931 542.931C184.628 351.905 231.667 271.06 482.931 233.931" stroke="url(#paint8_linear_16_91176)" stroke-width="6" stroke-linecap="round"/>
<path d="M143.646 536.646C188.761 380.038 242.253 305.646 452.646 227.646" stroke="url(#paint9_linear_16_91176)" stroke-width="6" stroke-linecap="round"/>
<g clip-path="url(#clip1_16_91176)">
<path d="M497.5 248C762.141 714.364 758.22 829.827 180 540" stroke="url(#paint10_linear_16_91176)" stroke-width="6" stroke-linecap="round"/>
<path d="M522.5 244.5C752.724 676.446 747.635 795.242 210.284 546.284" stroke="url(#paint11_linear_16_91176)" stroke-width="6" stroke-linecap="round"/>
<path d="M552 248C747.806 645.529 737.05 760.656 240.569 552.569" stroke="url(#paint12_linear_16_91176)" stroke-width="6" stroke-linecap="round"/>
<path d="M581 250.5C742.389 613.612 726.464 726.071 270.853 558.853" stroke="url(#paint13_linear_16_91176)" stroke-width="6" stroke-linecap="round"/>
<path d="M610.137 256.137C737.109 584.832 715.879 691.486 301.137 565.137" stroke="url(#paint14_linear_16_91176)" stroke-width="6" stroke-linecap="round"/>
<path d="M640.421 262.421C732.976 556.699 705.294 656.9 331.421 571.421" stroke="url(#paint15_linear_16_91176)" stroke-width="6" stroke-linecap="round"/>
<path d="M670.706 268.706C728.843 528.565 694.708 622.315 361.706 577.706" stroke="url(#paint16_linear_16_91176)" stroke-width="6" stroke-linecap="round"/>
<path d="M700.99 274.99C724.71 500.432 684.123 587.73 391.99 583.99" stroke="url(#paint17_linear_16_91176)" stroke-width="6" stroke-linecap="round"/>
<path d="M731.274 281.274C720.577 472.299 673.538 553.144 422.274 590.274" stroke="url(#paint18_linear_16_91176)" stroke-width="6" stroke-linecap="round"/>
<path d="M761.559 287.558C716.443 444.166 662.952 518.559 452.559 596.558" stroke="url(#paint19_linear_16_91176)" stroke-width="6" stroke-linecap="round"/>
</g>
</g>
<defs>
<linearGradient id="paint0_linear_16_91176" x1="330.681" y1="378.979" x2="514.458" y2="195.203" gradientUnits="userSpaceOnUse">
<stop offset="0.635417" stop-color="#282727"/>
<stop offset="1" stop-color="#D7E9A1"/>
</linearGradient>
<linearGradient id="paint1_linear_16_91176" x1="314.51" y1="386.808" x2="498.286" y2="203.031" gradientUnits="userSpaceOnUse">
<stop offset="0.635417" stop-color="#282727"/>
<stop offset="1" stop-color="#D7E9A1"/>
</linearGradient>
<linearGradient id="paint2_linear_16_91176" x1="298.338" y1="394.636" x2="482.115" y2="210.86" gradientUnits="userSpaceOnUse">
<stop offset="0.635417" stop-color="#282727"/>
<stop offset="1" stop-color="#D7E9A1"/>
</linearGradient>
<linearGradient id="paint3_linear_16_91176" x1="282.167" y1="402.465" x2="465.944" y2="218.688" gradientUnits="userSpaceOnUse">
<stop offset="0.635417" stop-color="#282727"/>
<stop offset="1" stop-color="#D7E9A1"/>
</linearGradient>
<linearGradient id="paint4_linear_16_91176" x1="265.996" y1="410.294" x2="449.772" y2="226.517" gradientUnits="userSpaceOnUse">
<stop offset="0.635417" stop-color="#282727"/>
<stop offset="1" stop-color="#D7E9A1"/>
</linearGradient>
<linearGradient id="paint5_linear_16_91176" x1="249.824" y1="418.122" x2="433.601" y2="234.345" gradientUnits="userSpaceOnUse">
<stop offset="0.635417" stop-color="#282727"/>
<stop offset="1" stop-color="#D7E9A1"/>
</linearGradient>
<linearGradient id="paint6_linear_16_91176" x1="233.653" y1="425.951" x2="417.429" y2="242.174" gradientUnits="userSpaceOnUse">
<stop offset="0.635417" stop-color="#282727"/>
<stop offset="1" stop-color="#D7E9A1"/>
</linearGradient>
<linearGradient id="paint7_linear_16_91176" x1="217.481" y1="433.779" x2="401.258" y2="250.003" gradientUnits="userSpaceOnUse">
<stop offset="0.635417" stop-color="#282727"/>
<stop offset="1" stop-color="#D7E9A1"/>
</linearGradient>
<linearGradient id="paint8_linear_16_91176" x1="201.31" y1="441.608" x2="385.087" y2="257.831" gradientUnits="userSpaceOnUse">
<stop offset="0.635417" stop-color="#282727"/>
<stop offset="1" stop-color="#D7E9A1"/>
</linearGradient>
<linearGradient id="paint9_linear_16_91176" x1="185.138" y1="449.437" x2="368.915" y2="265.66" gradientUnits="userSpaceOnUse">
<stop offset="0.635417" stop-color="#282727"/>
<stop offset="1" stop-color="#D7E9A1"/>
</linearGradient>
<linearGradient id="paint10_linear_16_91176" x1="574.524" y1="445.225" x2="390.747" y2="629.002" gradientUnits="userSpaceOnUse">
<stop stop-color="#282727"/>
<stop offset="1" stop-color="#D7E9A1"/>
</linearGradient>
<linearGradient id="paint11_linear_16_91176" x1="590.695" y1="437.397" x2="406.919" y2="621.174" gradientUnits="userSpaceOnUse">
<stop stop-color="#454343"/>
<stop offset="1" stop-color="#D7E9A1"/>
</linearGradient>
<linearGradient id="paint12_linear_16_91176" x1="606.867" y1="429.568" x2="423.09" y2="613.345" gradientUnits="userSpaceOnUse">
<stop stop-color="#282727"/>
<stop offset="1" stop-color="#D7E9A1"/>
</linearGradient>
<linearGradient id="paint13_linear_16_91176" x1="623.038" y1="421.74" x2="439.261" y2="605.516" gradientUnits="userSpaceOnUse">
<stop stop-color="#D7E9A1"/>
<stop offset="1" stop-color="#282727"/>
</linearGradient>
<linearGradient id="paint14_linear_16_91176" x1="639.209" y1="413.911" x2="455.433" y2="597.688" gradientUnits="userSpaceOnUse">
<stop offset="0.635417" stop-color="#282727"/>
<stop offset="1" stop-color="#D7E9A1"/>
</linearGradient>
<linearGradient id="paint15_linear_16_91176" x1="655.381" y1="406.083" x2="471.604" y2="589.859" gradientUnits="userSpaceOnUse">
<stop offset="0.635417" stop-color="#282727"/>
<stop offset="1" stop-color="#D7E9A1"/>
</linearGradient>
<linearGradient id="paint16_linear_16_91176" x1="671.552" y1="398.254" x2="487.776" y2="582.031" gradientUnits="userSpaceOnUse">
<stop offset="0.635417" stop-color="#282727"/>
<stop offset="1" stop-color="#D7E9A1"/>
</linearGradient>
<linearGradient id="paint17_linear_16_91176" x1="687.724" y1="390.425" x2="503.947" y2="574.202" gradientUnits="userSpaceOnUse">
<stop offset="0.635417" stop-color="#282727"/>
<stop offset="1" stop-color="#D7E9A1"/>
</linearGradient>
<linearGradient id="paint18_linear_16_91176" x1="703.895" y1="382.597" x2="520.118" y2="566.374" gradientUnits="userSpaceOnUse">
<stop offset="0.635417" stop-color="#282727"/>
<stop offset="1" stop-color="#D7E9A1"/>
</linearGradient>
<linearGradient id="paint19_linear_16_91176" x1="720.067" y1="374.768" x2="536.29" y2="558.545" gradientUnits="userSpaceOnUse">
<stop offset="0.635417" stop-color="#282727"/>
<stop offset="1" stop-color="#D7E9A1"/>
</linearGradient>
<clipPath id="clip0_16_91176">
<rect width="719" height="668" fill="white" transform="translate(98 116)"/>
</clipPath>
<clipPath id="clip1_16_91176">
<rect width="660" height="614" fill="white" transform="translate(766 708) rotate(-180)"/>
</clipPath>
</defs>
</svg>
